<svg width="21" height="20" viewBox="0 0 21 20" fill="none" xmlns="http://www.w3.org/2000/svg">
<path d="M18.4055 16.6408C17.1703 14.5064 15.2312 13.0087 12.9781 12.3736C14.0735 11.8168 14.9495 10.9072 15.4648 9.79162C15.98 8.67604 16.1045 7.41942 15.8183 6.22441C15.532 5.0294 14.8515 3.96563 13.8867 3.20464C12.9218 2.44365 11.7288 2.02979 10.5 2.02979C9.27116 2.02979 8.07815 2.44365 7.1133 3.20464C6.14846 3.96563 5.46804 5.0294 5.18174 6.22441C4.89544 7.41942 5.01996 8.67604 5.53522 9.79162C6.05048 10.9072 6.92644 11.8168 8.02187 12.3736C5.76875 13.008 3.82968 14.5056 2.59453 16.6408C2.56061 16.6941 2.53784 16.7538 2.52758 16.8162C2.51732 16.8786 2.51978 16.9424 2.53482 17.0038C2.54986 17.0652 2.57717 17.1229 2.6151 17.1735C2.65303 17.2241 2.7008 17.2664 2.75553 17.2981C2.81026 17.3297 2.87083 17.35 2.93359 17.3576C2.99635 17.3652 3.06 17.36 3.12072 17.3424C3.18143 17.3248 3.23796 17.2951 3.28689 17.2551C3.33583 17.2151 3.37616 17.1655 3.40546 17.1095C4.90625 14.5166 7.55781 12.9689 10.5 12.9689C13.4422 12.9689 16.0937 14.5166 17.5945 17.1095C17.6238 17.1655 17.6642 17.2151 17.7131 17.2551C17.762 17.2951 17.8186 17.3248 17.8793 17.3424C17.94 17.36 18.0036 17.3652 18.0664 17.3576C18.1292 17.35 18.1897 17.3297 18.2445 17.2981C18.2992 17.2664 18.347 17.2241 18.3849 17.1735C18.4228 17.1229 18.4501 17.0652 18.4652 17.0038C18.4802 16.9424 18.4827 16.8786 18.4724 16.8162C18.4622 16.7538 18.4394 16.6941 18.4055 16.6408ZM5.96875 7.50015C5.96875 6.60395 6.2345 5.72788 6.7324 4.98272C7.2303 4.23756 7.93798 3.65678 8.76596 3.31382C9.59394 2.97086 10.505 2.88113 11.384 3.05597C12.263 3.2308 13.0704 3.66236 13.7041 4.29607C14.3378 4.92978 14.7693 5.73717 14.9442 6.61615C15.119 7.49512 15.0293 8.40621 14.6863 9.23418C14.3434 10.0622 13.7626 10.7698 13.0174 11.2677C12.2723 11.7656 11.3962 12.0314 10.5 12.0314C9.29868 12.03 8.14698 11.5521 7.29752 10.7026C6.44806 9.85317 5.97019 8.70147 5.96875 7.50015Z" fill="#B4B4B4"/>
</svg>
