<svg width="68" height="42" viewBox="0 0 68 42" fill="none" xmlns="http://www.w3.org/2000/svg">
<circle cx="21" cy="21" r="21" fill="url(#paint0_linear_214_45)"/>
<path d="M9.3442 26.3977V16.0932H12.826C13.631 16.0932 14.2918 16.2307 14.8084 16.5058C15.325 16.7775 15.7074 17.1515 15.9556 17.6278C16.2038 18.1041 16.3279 18.6459 16.3279 19.253C16.3279 19.8601 16.2038 20.3985 15.9556 20.8681C15.7074 21.3377 15.3266 21.7067 14.8134 21.975C14.3002 22.24 13.6444 22.3725 12.8461 22.3725H10.0285V21.2455H12.8059C13.356 21.2455 13.7987 21.165 14.1342 21.0039C14.473 20.8429 14.7178 20.6148 14.8688 20.3197C15.0231 20.0211 15.1002 19.6656 15.1002 19.253C15.1002 18.8404 15.0231 18.4798 14.8688 18.1712C14.7145 17.8626 14.4679 17.6245 14.1291 17.4567C13.7904 17.2857 13.3426 17.2001 12.7857 17.2001H10.592V26.3977H9.3442ZM14.1946 21.7687L16.7304 26.3977H15.2814L12.7857 21.7687H14.1946ZM21.4034 26.5587C20.6588 26.5587 20.0164 26.3944 19.4764 26.0656C18.9397 25.7335 18.5254 25.2707 18.2336 24.6769C17.9451 24.0799 17.8009 23.3855 17.8009 22.5939C17.8009 21.8023 17.9451 21.1046 18.2336 20.5008C18.5254 19.8937 18.9313 19.4207 19.4512 19.0819C19.9745 18.7398 20.585 18.5687 21.2827 18.5687C21.6852 18.5687 22.0827 18.6358 22.4751 18.77C22.8676 18.9041 23.2248 19.1222 23.5468 19.4241C23.8689 19.7226 24.1255 20.1184 24.3167 20.6115C24.5079 21.1046 24.6035 21.7117 24.6035 22.4329V22.936H18.6462V21.9096H23.3959C23.3959 21.4736 23.3087 21.0845 23.1343 20.7423C22.9632 20.4002 22.7183 20.1301 22.3997 19.9322C22.0844 19.7343 21.712 19.6354 21.2827 19.6354C20.8097 19.6354 20.4005 19.7528 20.055 19.9876C19.7128 20.219 19.4495 20.5209 19.265 20.8933C19.0806 21.2656 18.9883 21.6648 18.9883 22.0907V22.775C18.9883 23.3587 19.0889 23.8534 19.2902 24.2593C19.4948 24.6618 19.7783 24.9688 20.1405 25.1801C20.5028 25.3881 20.9238 25.492 21.4034 25.492C21.7154 25.492 21.9971 25.4484 22.2487 25.3612C22.5036 25.2707 22.7234 25.1365 22.9078 24.9587C23.0923 24.7776 23.2349 24.5528 23.3355 24.2845L24.4827 24.6065C24.3619 24.9956 24.159 25.3377 23.8739 25.6329C23.5888 25.9247 23.2366 26.1528 22.8173 26.3172C22.398 26.4782 21.9267 26.5587 21.4034 26.5587ZM30.8375 21.4266V22.5335H26.3293V21.4266H30.8375Z" fill="white"/>
<path d="M34.5972 16.0932L37.0878 23.9222H37.1834L39.6791 16.0932H42.0942L38.5419 26.3977H35.7344L32.1771 16.0932H34.5972ZM43.2942 26.3977V18.6693H45.4376V26.3977H43.2942ZM44.3709 17.6731C44.0523 17.6731 43.7789 17.5674 43.5508 17.3561C43.326 17.1414 43.2137 16.8848 43.2137 16.5863C43.2137 16.2911 43.326 16.0379 43.5508 15.8265C43.7789 15.6119 44.0523 15.5045 44.3709 15.5045C44.6896 15.5045 44.9613 15.6119 45.186 15.8265C45.4141 16.0379 45.5282 16.2911 45.5282 16.5863C45.5282 16.8848 45.4141 17.1414 45.186 17.3561C44.9613 17.5674 44.6896 17.6731 44.3709 17.6731ZM50.6766 26.5486C49.8817 26.5486 49.1974 26.3876 48.6238 26.0656C48.0535 25.7403 47.6141 25.2807 47.3055 24.687C46.9969 24.0899 46.8426 23.3838 46.8426 22.5687C46.8426 21.7738 46.9969 21.0761 47.3055 20.4756C47.6141 19.8752 48.0485 19.4073 48.6087 19.0719C49.1722 18.7364 49.833 18.5687 50.5911 18.5687C51.101 18.5687 51.5756 18.6509 52.015 18.8152C52.4578 18.9763 52.8435 19.2194 53.1722 19.5448C53.5043 19.8702 53.7626 20.2794 53.9471 20.7725C54.1316 21.2622 54.2238 21.8358 54.2238 22.4933V23.082H47.698V21.7536H52.2062C52.2062 21.445 52.1391 21.1717 52.0049 20.9335C51.8708 20.6953 51.6846 20.5092 51.4464 20.375C51.2116 20.2375 50.9383 20.1687 50.6263 20.1687C50.3009 20.1687 50.0125 20.2442 49.7609 20.3951C49.5127 20.5427 49.3181 20.7423 49.1772 20.9939C49.0364 21.2421 48.9642 21.5188 48.9609 21.8241V23.087C48.9609 23.4694 49.0313 23.7998 49.1722 24.0782C49.3164 24.3566 49.5194 24.5713 49.781 24.7222C50.0427 24.8732 50.3529 24.9486 50.7118 24.9486C50.95 24.9486 51.168 24.9151 51.3659 24.848C51.5638 24.7809 51.7332 24.6803 51.8741 24.5461C52.015 24.4119 52.1223 24.2476 52.1961 24.053L54.1785 24.1838C54.0779 24.6602 53.8716 25.0761 53.5597 25.4317C53.2511 25.7839 52.8519 26.0589 52.3622 26.2568C51.8758 26.4514 51.314 26.5486 50.6766 26.5486ZM57.0918 26.3977L54.9886 18.6693H57.1572L58.3547 23.8618H58.4251L59.6729 18.6693H61.8013L63.0692 23.8316H63.1346L64.312 18.6693H66.4755L64.3774 26.3977H62.1082L60.7799 21.5373H60.6843L59.3559 26.3977H57.0918Z" fill="#1A7270"/>
<defs>
<linearGradient id="paint0_linear_214_45" x1="21" y1="0" x2="21" y2="42" gradientUnits="userSpaceOnUse">
<stop stop-color="#17706E"/>
<stop offset="1" stop-color="#F9FDFF"/>
</linearGradient>
</defs>
</svg>
