<svg width="16" height="16" viewBox="0 0 16 16" fill="none" xmlns="http://www.w3.org/2000/svg">
<path d="M8.00004 9.66634C8.92052 9.66634 9.66671 8.92015 9.66671 7.99967C9.66671 7.0792 8.92052 6.33301 8.00004 6.33301C7.07957 6.33301 6.33337 7.0792 6.33337 7.99967C6.33337 8.92015 7.07957 9.66634 8.00004 9.66634Z" stroke="#B4B4B4"/>
<path d="M2.49919 2.89976L2.70752 2.53809C2.62572 2.4908 2.53029 2.47271 2.43686 2.48679C2.34344 2.50088 2.25757 2.54629 2.19335 2.61559L2.49919 2.89976ZM0.833352 5.78642L0.435018 5.66309C0.407293 5.75327 0.41099 5.85018 0.445505 5.93798C0.480019 6.02578 0.543308 6.09927 0.625018 6.14642L0.833352 5.78642ZM0.831685 10.2123L0.623352 9.85142C0.541466 9.89862 0.478056 9.97224 0.443531 10.0602C0.409005 10.1482 0.405416 10.2453 0.433352 10.3356L0.831685 10.2123ZM2.49835 13.0989L2.19252 13.3823C2.25674 13.4516 2.3426 13.497 2.43603 13.5111C2.52945 13.5251 2.62489 13.507 2.70668 13.4598L2.49835 13.0989ZM6.33169 15.3114H5.91502C5.91497 15.406 5.94713 15.4979 6.00619 15.5718C6.06526 15.6457 6.14772 15.6973 6.24002 15.7181L6.33169 15.3114ZM9.66585 15.3131L9.75835 15.7198C9.85049 15.6988 9.93277 15.6471 9.99167 15.5732C10.0506 15.4993 10.0826 15.4076 10.0825 15.3131H9.66669H9.66585ZM13.5 13.0998L13.2917 13.4606C13.3735 13.5079 13.4689 13.526 13.5623 13.5119C13.6558 13.4978 13.7416 13.4524 13.8059 13.3831L13.5 13.0998ZM15.165 10.2114L15.5634 10.3348C15.5911 10.2446 15.5874 10.1477 15.5529 10.0599C15.5184 9.97207 15.4551 9.89858 15.3734 9.85142L15.165 10.2114ZM15.1667 5.78559L15.375 6.14642C15.4569 6.09923 15.5203 6.02561 15.5548 5.93763C15.5894 5.84965 15.593 5.75255 15.565 5.66226L15.1667 5.78559ZM13.5 2.89809L13.8059 2.61476C13.7416 2.54546 13.6558 2.50004 13.5623 2.48596C13.4689 2.47188 13.3735 2.48997 13.2917 2.53726L13.5 2.89809ZM9.66669 0.687257H10.0834C10.0833 0.592901 10.0511 0.501373 9.99224 0.427649C9.93336 0.353925 9.85119 0.302371 9.75919 0.281424L9.66669 0.687257ZM6.33335 0.685591L6.24085 0.278924C6.14856 0.299739 6.06609 0.351346 6.00703 0.425256C5.94796 0.499166 5.9158 0.590978 5.91585 0.685591H6.33252H6.33335ZM1.23168 5.90976C1.54434 4.89402 2.08182 3.96178 2.80418 3.18226L2.19335 2.61559C1.38573 3.48674 0.784743 4.52782 0.435018 5.66309L1.23168 5.90976ZM1.86502 11.5414C1.60018 11.0827 1.38747 10.5958 1.23085 10.0898L0.434185 10.3364C0.609741 10.9017 0.847884 11.4457 1.14418 11.9581L1.86502 11.5414ZM2.80502 12.8164C2.44545 12.4277 2.12961 12.0001 1.86502 11.5414L1.14418 11.9581C1.43972 12.4707 1.79163 12.9487 2.19335 13.3831L2.80502 12.8164ZM9.57419 14.9081C8.53794 15.144 7.46185 15.1434 6.42585 14.9064L6.24085 15.7181C7.39857 15.9831 8.6011 15.9839 9.75919 15.7206L9.57419 14.9081ZM14.7684 10.0898C14.4557 11.1055 13.9182 12.0377 13.1959 12.8173L13.8067 13.3839C14.6143 12.5128 15.2153 11.4709 15.565 10.3356L14.7684 10.0898ZM14.135 4.45809C14.405 4.92726 14.6159 5.41392 14.77 5.90976L15.5659 5.66309C15.3904 5.09776 15.1522 4.55383 14.8559 4.04142L14.135 4.45809ZM13.195 3.18309C13.5549 3.57156 13.8707 3.99925 14.135 4.45809L14.8559 4.04142C14.5603 3.5288 14.2084 3.05083 13.8067 2.61642L13.195 3.18309ZM6.42585 1.09142C7.4621 0.855511 8.53819 0.85608 9.57419 1.09309L9.75919 0.281424C8.60147 0.0164135 7.39894 0.015559 6.24085 0.278924L6.42585 1.09142ZM6.75002 2.22642V0.684757H5.91669V2.22642H6.75002ZM4.04169 3.30809L2.70752 2.53809L2.29085 3.25892L3.62419 4.02976L4.04169 3.30809ZM1.95835 9.08142L0.623352 9.85142L1.04085 10.5731L2.37418 9.80309L1.95835 9.08142ZM2.37502 6.19476L1.04168 5.42559L0.625018 6.14726L1.95835 6.91642L2.37502 6.19476ZM6.75002 15.3114V13.7723H5.91669V15.3114H6.75002ZM3.62502 11.9681L2.29085 12.7381L2.70752 13.4598L4.04085 12.6898L3.62502 11.9681ZM13.7092 12.7389L12.375 11.9681L11.9584 12.6906L13.2917 13.4606L13.7092 12.7389ZM10.0834 15.3139V13.7723H9.25002V15.3139H10.0834ZM14.9592 5.42476L13.625 6.19476L14.0417 6.91642L15.375 6.14642L14.9592 5.42476ZM15.3742 9.85059L14.0417 9.08309L13.625 9.80476L14.9584 10.5739L15.375 9.85226L15.3742 9.85059ZM10.0834 2.22642V0.687257H9.25002V2.22642H10.0834ZM13.2925 2.53809L11.9584 3.30892L12.375 4.03059L13.7092 3.25976L13.2925 2.53809ZM9.25002 2.22642C9.25002 3.82976 10.9859 4.83226 12.375 4.03059L11.9584 3.30892C11.7683 3.41867 11.5526 3.47643 11.3332 3.47639C11.1137 3.47636 10.8981 3.41853 10.708 3.30872C10.518 3.19892 10.3602 3.04101 10.2505 2.85087C10.1409 2.66074 10.0832 2.44591 10.0834 2.22642H9.25002ZM13.625 6.19559C12.2359 6.99726 12.2359 9.00226 13.625 9.80392L14.0417 9.08226C13.8517 8.97254 13.6939 8.81475 13.5842 8.62473C13.4745 8.43471 13.4167 8.21917 13.4167 7.99976C13.4167 7.78035 13.4745 7.5648 13.5842 7.37479C13.6939 7.18477 13.8517 7.02697 14.0417 6.91726L13.625 6.19559ZM12.375 11.9689C10.9859 11.1673 9.25002 12.1681 9.25002 13.7723H10.0834C10.0834 13.5528 10.1411 13.3381 10.2508 13.1481C10.3605 12.9581 10.5183 12.8003 10.7084 12.6906C10.8984 12.5809 11.1139 12.5231 11.3334 12.5231C11.5528 12.5231 11.7683 12.5809 11.9584 12.6906L12.375 11.9689ZM6.75002 13.7723C6.75002 12.1689 5.01418 11.1673 3.62502 11.9689L4.04169 12.6906C4.23177 12.5808 4.4474 12.5231 4.66689 12.5231C4.88637 12.5232 5.10198 12.581 5.29203 12.6908C5.48208 12.8006 5.63986 12.9585 5.74952 13.1486C5.85917 13.3388 5.91683 13.5544 5.91669 13.7739H6.75002V13.7723ZM2.37502 9.80392C3.76419 9.00226 3.76419 6.99726 2.37502 6.19559L1.95835 6.91726C2.79168 7.39809 2.79168 8.59976 1.95835 9.08142L2.37502 9.80392ZM5.91669 2.22642C5.91653 2.44577 5.85866 2.66122 5.74889 2.85112C5.63912 3.04102 5.48131 3.1987 5.29131 3.30831C5.10131 3.41792 4.88582 3.4756 4.66647 3.47556C4.44712 3.47552 4.23165 3.41776 4.04169 3.30809L3.62502 4.03059C5.01418 4.83226 6.75002 3.83059 6.75002 2.22642H5.91669Z" fill="#B4B4B4"/>
</svg>
